{"title":"After.Earth.2013.R6.DVDScr.x264.AC3-SmY","uid":8730942,"size":2251924882,"categoryP":"video","categoryS":"movies","magnet":"?xt=urn:btih:2563885030e3defd446eedd443130f1d612383d7&amp;dn=After.Earth.2013.R6.DVDScr.x264.AC3-SmY&amp;tr=udp%3A%2F%2Ftracker.openbittorrent.com%3A80&amp;tr=udp%3A%2F%2Fopen.demonii.com%3A1337&amp;tr=udp%3A%2F%2Ftracker.coppersurfer.tk%3A6969&amp;tr=udp%3A%2F%2Fexodus.desync.com%3A6969","seeders":1,"leechers":0,"uploader":"Horrorspoke","files":-1,"time":1374603662,"description":"A crash landing leaves Kitai Raige and his father Cypher stranded on Earth, a millennium after events forced humanity's escape. With Cypher injured, Kitai must embark on a perilous journey to signal for help.\n\n\nsub:HC Chinese\n\nFormat : Matroska\nFormat version : Version 2\nFile size : 2.10 GiB\nDuration : 1h 30mn\nOverall bit rate : 3 318 Kbps\nEncoded date : UTC 2013-07-22 14:29:42\nWriting application : mkvmerge v5.2.0 ('I can't explain') built on Dec 18 2011\n\n18:12:03\nWriting library : libebml v1.2.3 + libmatroska v1.3.0\nVideo #1\nID : 1\nFormat : AVC\nFormat/Info : Advanced Video Codec\nFormat profile : &lt;a class=&quot;__cf_email__&quot; href=&quot;/cdn-cgi/l/email-protection&quot; data-cfemail=&quot;5c14353b341c106f726d&quot;&gt;[email&amp;#160;protected]&lt;/a&gt;&lt;script cf-hash='f9e31' type=&quot;text/javascript&quot;&gt;\n/* &lt;![CDATA[ */!function(){try{var t=&quot;currentScript&quot;in document?document.currentScript:function(){for(var t=document.getElementsByTagName(&quot;script&quot;),e=t.length;e--;)if(t[e].getAttribute(&quot;cf-hash&quot;))return t[e]}();if(t&amp;&amp;t.previousSibling){var e,r,n,i,c=t.previousSibling,a=c.getAttribute(&quot;data-cfemail&quot;);if(a){for(e=&quot;&quot;,r=parseInt(a.substr(0,2),16),n=2;a.length-n;n+=2)i=parseInt(a.substr(n,2),16)^r,e+=String.fromCharCode(i);e=document.createTextNode(e),c.parentNode.replaceChild(e,c)}}}catch(u){}}();/* ]]&gt; */&lt;/script&gt;\nFormat settings, CABAC : Yes\nFormat settings, ReFrames : 4 frames\nMuxing mode : Header stripping\nCodec ID : V_MPEG4/ISO/AVC\nDuration : 1h 30mn\nBit rate : 3 000 Kbps\nWidth : 720 pixels\nHeight : 296 pixels\nDisplay aspect ratio : 2.40:1\nFrame rate : 29.970 fps\nColor space : YUV\nChroma subsampling : 4:2:0\nBit depth : 8 bits\nScan type : Progressive\nBits/(Pixel*Frame) : 0.470\nStream size : 1.85 GiB (88%)\nWriting library : x264 core 116 r2074 2641b9e\nAudio #2\nID : 2\nFormat : AC-3\nFormat/Info : Audio Coding 3\nMode extension : CM (complete main)\nFormat settings, Endianness : Big\nMuxing mode : Header stripping\nCodec ID : A_AC3\nDuration : 1h 30mn\nBit rate mode : Constant\nBit rate : 320 Kbps\nChannel(s) : 2 channels\nChannel positions : Front: L R\nSampling rate : 48.0 KHz\nBit depth : 16 bits\nCompression mode : Lossy\nStream size : 207 MiB (10%)\nDefault : Yes\nForced : No\n\nSCREENS:\n &lt;a href=&quot;\nhttp://i.imgur.com/GfJpUkk.jpg&quot; rel=&quot;nofollow&quot; target=&quot;_NEW&quot;&gt;\nhttp://i.imgur.com/GfJpUkk.jpg&lt;/a&gt; &lt;a href=&quot;\nhttp://i.imgur.com/GfJpUkk.jpg&quot; rel=&quot;nofollow&quot; target=&quot;_NEW&quot;&gt;\nhttp://i.imgur.com/GfJpUkk.jpg&lt;/a&gt; &lt;a href=&quot;\nhttp://i.imgur.com/GfJpUkk.jpg&quot; rel=&quot;nofollow&quot; target=&quot;_NEW&quot;&gt;\nhttp://i.imgur.com/GfJpUkk.jpg&lt;/a&gt; &lt;a href=&quot;\nhttp://i.imgur.com/GfJpUkk.jpg&quot; rel=&quot;nofollow&quot; target=&quot;_NEW&quot;&gt;\nhttp://i.imgur.com/GfJpUkk.jpg&lt;/a&gt; &lt;a href=&quot;\nhttp://i.imgur.com/GfJpUkk.jpg&quot; rel=&quot;nofollow&quot; target=&quot;_NEW&quot;&gt;\nhttp://i.imgur.com/GfJpUkk.jpg&lt;/a&gt;\n\nSEED AND HAVE FUN!!!!!","torrent":{"xt":"urn:btih:2563885030e3defd446eedd443130f1d612383d7","amp;dn":"After.Earth.2013.R6.DVDScr.x264.AC3-SmY","amp;tr":["udp%3A%2F%2Ftracker.openbittorrent.com%3A80","udp%3A%2F%2Fopen.demonii.com%3A1337","udp%3A%2F%2Ftracker.coppersurfer.tk%3A6969","udp%3A%2F%2Fexodus.desync.com%3A6969"],"infoHash":"2563885030e3defd446eedd443130f1d612383d7","infoHashBuffer":{"type":"Buffer","data":[37,99,136,80,48,227,222,253,68,110,237,212,67,19,15,29,97,35,131,215]},"announce":[],"urlList":[]}}